<svg width="72" height="73" viewBox="0 0 72 73" fill="none" xmlns="http://www.w3.org/2000/svg">
<path d="M35.94 72.38C55.7891 72.38 71.88 56.2891 71.88 36.44C71.88 16.5909 55.7891 0.5 35.94 0.5C16.0909 0.5 0 16.5909 0 36.44C0 56.2891 16.0909 72.38 35.94 72.38Z" fill="#F3BA2F"/>
<path d="M27.2156 32.855L35.94 24.1306L44.6689 32.8595L49.7455 27.783L35.94 13.9775L22.139 27.7785L27.2156 32.855ZM13.4775 36.44L18.554 31.3635L23.6306 36.44L18.554 41.5165L13.4775 36.44ZM27.2156 40.025L35.94 48.7494L44.6689 40.0205L49.7455 45.0948L35.94 58.9025L22.139 45.1015L22.1323 45.0948L27.2156 40.025ZM48.2494 36.44L53.326 31.3635L58.4025 36.44L53.326 41.5165L48.2494 36.44ZM41.0884 36.4355H41.0929V36.44L35.94 41.5929L30.7938 36.449L30.7849 36.44L30.7938 36.4333L31.6946 35.5303L32.1326 35.0922L35.94 31.2871L41.0906 36.4378L41.0884 36.4355Z" fill="white"/>
</svg>
