<svg width="72" height="72" viewBox="0 0 72 72" fill="none" xmlns="http://www.w3.org/2000/svg">
<path fill-rule="evenodd" clip-rule="evenodd" d="M35.94 71.88C16.0899 71.88 0 55.7901 0 35.94C0 16.0899 16.0899 0 35.94 0C55.7901 0 71.88 16.0899 71.88 35.94C71.88 55.7901 55.7901 71.88 35.94 71.88ZM53.8965 36.4319L37.0586 8.985L20.2162 36.4342L37.0586 46.2121L53.8965 36.4319ZM53.91 39.5699L37.0586 49.3434L20.2162 39.5722L37.0586 62.8838L53.91 39.5699Z" fill="black"/>
<path d="M37.0586 8.985V28.9092L53.8988 36.4342L37.0586 8.985ZM37.0586 49.3456V62.8838L53.91 39.5699L37.0586 49.3456Z" fill="black" fill-opacity="0.298"/>
<path d="M37.0586 46.2121L53.8988 36.4342L37.0586 28.9137V46.2121Z" fill="black" fill-opacity="0.801"/>
<path d="M20.2162 36.4342L37.0586 46.2121V28.9137L20.2162 36.4342Z" fill="black" fill-opacity="0.298"/>
</svg>
