<svg width="60" height="45" viewBox="0 0 60 45" fill="none" xmlns="http://www.w3.org/2000/svg">
<path d="M13.7352 45L2.50303 41.3857L0 8.84355H27.504L24.9983 41.3806L13.7352 45Z" fill="#264DE4"/>
<path d="M22.8532 39.3087L24.9944 11.5043H13.752V42.2335L22.8532 39.3087Z" fill="#2965F1"/>
<path d="M5.73817 23.5737L6.04678 27.5649H13.752V23.5737H5.73817Z" fill="#EBEBEB"/>
<path d="M5.11803 15.4956L5.43103 19.4868H13.752V15.4956H13.7401H5.11803Z" fill="#EBEBEB"/>
<path d="M13.752 33.9392L13.7369 33.9439L9.90222 32.7436L9.65708 29.5605H7.7937H6.20064L6.68303 35.8272L13.7362 38.0968L13.752 38.0917V33.9392Z" fill="#EBEBEB"/>
<path d="M6.47289 0H10.6432V2.02148H8.21684V4.04297H10.6432V6.06445H6.47289V0Z" fill="black"/>
<path d="M11.4773 0H15.6476V1.75781H13.2212V2.10938H15.6476V6.15234H11.4773V4.30664H13.9036V3.95508H11.4773V0Z" fill="black"/>
<path d="M16.4817 0H20.652V1.75781H18.2256V2.10938H20.652V6.15234H16.4817V4.30664H18.908V3.95508H16.4817V0Z" fill="black"/>
<path d="M21.7438 23.5738L22.3654 15.4956H13.7401V19.4868H18.592L18.2787 23.5738H13.7401V27.5649H17.9801L17.5804 32.7411L13.7401 33.9426V38.0949L20.7989 35.8272L20.8507 35.1529L21.6598 24.6455L21.7438 23.5738Z" fill="white"/>
<path d="M60 8.84355L57.4944 41.3806L46.2312 45L34.9991 41.3857L32.4961 8.84355H60Z" fill="#E44D26"/>
<path d="M46.248 42.2335L55.3491 39.3087L57.4904 11.5043H46.248V42.2335Z" fill="#F16529"/>
<path d="M41.3771 19.4868H46.248V15.4956H46.2361H37.6141L37.6965 16.5663L38.5428 27.5649H46.248V23.5738H41.6918L41.3771 19.4868Z" fill="#EBEBEB"/>
<path d="M42.153 29.5605H40.2897H38.6966L39.179 35.8272L46.2321 38.0968L46.248 38.0917V33.9392L46.2329 33.9439L42.3982 32.7436L42.153 29.5605Z" fill="#EBEBEB"/>
<path d="M35.055 0H36.8048V2.00391H38.4054V0H40.1553V6.06832H38.4055V4.03629H36.8048V6.06832H35.0551V0H35.055Z" fill="black"/>
<path d="M42.4564 2.01234H40.916V0H45.7475V2.01234H44.2063V6.06832H42.4565V2.01234H42.4564Z" fill="black"/>
<path d="M46.5143 0H48.3388L49.4612 2.13223L50.5824 0H52.4076V6.06832H50.665V3.06053L49.4612 5.21815H49.4311L48.2264 3.06053V6.06832H46.5143V0Z" fill="black"/>
<path d="M53.2784 0H55.0288V4.06248H57.4895V6.06832H53.2784V0Z" fill="black"/>
<path d="M46.2361 27.5649H50.476L50.0763 32.7411L46.2361 33.9426V38.0949L53.2949 35.8272L53.3466 35.1529L54.1558 24.6455L54.2398 23.5737H53.3119H46.2361V27.5649Z" fill="white"/>
<path d="M46.2361 19.477V19.4868H54.542H54.5531L54.6222 18.5897L54.779 16.5663L54.8614 15.4956H46.2361V17.9744V19.477Z" fill="white"/>
</svg>
