<svg width="42" height="42" viewBox="0 0 42 42" fill="none" xmlns="http://www.w3.org/2000/svg">
<path d="M0 0H42V42H0V0ZM11.0367 35.0933C11.97 37.0767 13.8133 38.71 16.9633 38.71C20.4633 38.71 22.8667 36.8433 22.8667 32.76V19.2733H18.9V32.6667C18.9 34.6733 18.0833 35.1867 16.8 35.1867C15.4467 35.1867 14.8867 34.2533 14.2567 33.1567L11.0367 35.0933ZM24.99 34.6733C26.1567 36.96 28.5133 38.71 32.2 38.71C35.9333 38.71 38.7333 36.7733 38.7333 33.2033C38.7333 29.9133 36.8433 28.4433 33.4833 26.9967L32.5033 26.5767C30.8 25.8533 30.0767 25.3633 30.0767 24.1967C30.0767 23.24 30.8 22.4933 31.9667 22.4933C33.0867 22.4933 33.8333 22.9833 34.51 24.1967L37.5667 22.1667C36.2833 19.9267 34.4633 19.0633 31.9667 19.0633C28.4433 19.0633 26.18 21.3033 26.18 24.2667C26.18 27.4867 28.07 29.0033 30.9167 30.2167L31.8967 30.6367C33.7167 31.43 34.79 31.92 34.79 33.2733C34.79 34.3933 33.74 35.21 32.1067 35.21C30.17 35.21 29.05 34.2067 28.21 32.8067L24.99 34.6733Z" fill="#FFCA28"/>
</svg>
