<svg width="104" height="42" viewBox="0 0 104 42" fill="none" xmlns="http://www.w3.org/2000/svg">
<path d="M86.5983 0.0174869V6.71513H79.4661V41.9505H75.8997V6.71513H68.6188V0.0174869H86.5983ZM87.4 37.9557C87.6512 37.9557 87.8711 38.1383 88.0571 38.5035C88.2457 38.8687 88.3397 39.3061 88.3424 39.8155C88.3397 40.1614 88.2963 40.4786 88.2093 40.7621C88.1199 41.0505 88.0065 41.2764 87.8637 41.4397C87.7236 41.6079 87.569 41.6944 87.4 41.6944C87.1388 41.6944 86.9166 41.5118 86.7306 41.1466C86.5446 40.7814 86.4527 40.3392 86.455 39.8155C86.4527 39.3061 86.5446 38.8687 86.7306 38.5035C86.9166 38.1383 87.1388 37.9557 87.4 37.9557ZM16.7164 41.9505L3.56616 8.96316V41.933H0V0H4.4577L21.0712 41.6364L21.0714 6.71513L21.07 0.0174869H39.0494V6.71513H24.6376V17.4896H36.2275V24.1872H24.6376V35.2529H39.0494V41.9505H16.7164ZM50.479 24.1231L52.8162 29.988L48.0271 42H43.3467L50.479 24.1231ZM48.0271 0.0349761L54.0611 15.1591L60.0763 0.0815248L64.7435 0.0669683L56.3978 21.0159L64.7569 41.968H60.0763L43.3601 0.0349761H48.0271ZM93.4867 24.0292H95.067V36.317C95.0646 37.4463 94.9436 38.4122 94.707 39.2244C94.4678 40.0365 94.1367 40.6563 93.7115 41.0937C93.2886 41.5261 92.7932 41.7473 92.2302 41.7473C91.7154 41.7473 91.2541 41.5598 90.8433 41.1946C90.4325 40.8294 90.1063 40.2816 89.8671 39.5607C89.6253 38.8399 89.5069 37.9413 89.5069 36.8648H91.0898C91.0922 37.3358 91.1453 37.7442 91.2467 38.0854C91.3481 38.4266 91.4883 38.6861 91.6672 38.8687C91.8482 39.0513 92.0563 39.1426 92.2905 39.1426C92.5443 39.1426 92.7618 39.0369 92.9381 38.8206C93.1144 38.6092 93.2499 38.292 93.3442 37.8691C93.4359 37.4511 93.4843 36.9321 93.4867 36.317V24.0292ZM101.569 28.8348C101.531 28.0899 101.361 27.5084 101.067 27.0952C100.769 26.6771 100.385 26.4704 99.914 26.4704C99.5831 26.4704 99.298 26.5714 99.0612 26.7684C98.8244 26.9702 98.6407 27.2393 98.515 27.5805C98.3895 27.9217 98.3266 28.311 98.3216 28.7483C98.3216 29.1135 98.3651 29.4307 98.4497 29.695C98.5344 29.9641 98.6478 30.1899 98.7953 30.3726C98.9402 30.56 99.1021 30.7137 99.2787 30.8387C99.4573 30.9636 99.6363 31.0694 99.8149 31.1559L100.639 31.5643C100.97 31.7181 101.291 31.9248 101.598 32.189C101.905 32.4486 102.183 32.7801 102.427 33.179C102.671 33.5779 102.864 34.0584 103.007 34.6207C103.149 35.1829 103.222 35.8412 103.222 36.6005C103.222 37.6241 103.092 38.5227 102.828 39.3012C102.565 40.0749 102.185 40.6804 101.688 41.1177C101.192 41.5502 100.593 41.7713 99.8875 41.7713C99.2061 41.7713 98.6116 41.5599 98.1115 41.137C97.609 40.7189 97.2174 40.1037 96.9347 39.2964C96.652 38.4891 96.4998 37.5039 96.478 36.3458H98.0439C98.0657 36.9513 98.1623 37.4559 98.3266 37.8644C98.4932 38.268 98.7107 38.566 98.9766 38.7678C99.2449 38.9648 99.5443 39.0658 99.8755 39.0658C100.221 39.0658 100.525 38.96 100.789 38.7534C101.05 38.5467 101.255 38.2585 101.403 37.8836C101.552 37.5136 101.627 37.0763 101.63 36.5765C101.627 36.12 101.56 35.7403 101.429 35.4423C101.296 35.1444 101.113 34.8946 100.878 34.6927C100.642 34.4909 100.366 34.3083 100.052 34.1497L99.0515 33.6403C98.329 33.2703 97.7563 32.7081 97.3381 31.9536C96.9179 31.1991 96.7099 30.1996 96.7099 28.9453C96.7099 27.917 96.8501 27.0135 97.133 26.2398C97.4131 25.4661 97.7974 24.8654 98.2831 24.4377C98.7712 24.0053 99.3222 23.7938 99.9357 23.7938C100.559 23.7938 101.105 24.0053 101.577 24.4377C102.048 24.8654 102.418 25.4613 102.686 26.2206C102.954 26.9798 103.094 27.8496 103.101 28.8348H101.569Z" fill="black"/>
</svg>
