<svg width="42" height="42" viewBox="0 0 42 42" fill="none" xmlns="http://www.w3.org/2000/svg">
<path d="M21 24.2471C22.8122 24.2471 24.2812 22.7781 24.2812 20.9659C24.2812 19.1537 22.8122 17.6846 21 17.6846C19.1878 17.6846 17.7188 19.1537 17.7188 20.9659C17.7188 22.7781 19.1878 24.2471 21 24.2471Z" fill="#00D8FF"/>
<path d="M21 28.4891C17.0561 28.5845 13.1221 28.0529 9.345 26.9141C7.60019 26.361 5.97284 25.4897 4.54519 24.3443C4.00041 23.9529 3.54673 23.4484 3.21529 22.8653C2.88384 22.2821 2.68247 21.6342 2.625 20.9659C2.625 18.7963 5.0085 16.6701 9.00112 15.2788C12.8792 14.046 16.9311 13.4486 21 13.5096C25.0145 13.4535 29.0122 14.0401 32.8414 15.2473C34.5218 15.783 36.0939 16.6122 37.485 17.6964C38.0205 18.0695 38.4673 18.5558 38.794 19.1208C39.1206 19.6858 39.3189 20.3157 39.375 20.9659C39.375 23.2208 36.7106 25.5058 32.4188 26.9259C28.7148 28.0276 24.8638 28.5548 21 28.4891V28.4891ZM21 15.0793C17.1073 15.0273 13.2311 15.5953 9.51694 16.7619C5.84194 18.0443 4.19475 19.7977 4.19475 20.9619C4.19475 22.1799 5.96531 24.0949 9.85294 25.4244C13.4663 26.5084 17.2287 27.0129 21 26.9194C24.6965 26.9855 28.3814 26.4853 31.9266 25.4362C35.9625 24.0988 37.8 22.1813 37.8 20.9659C37.7338 20.5488 37.5818 20.15 37.3536 19.7946C37.1254 19.4393 36.8261 19.1351 36.4744 18.9013C35.2298 17.9394 33.8254 17.2046 32.3256 16.7304C28.6624 15.5804 24.839 15.023 21 15.0793V15.0793Z" fill="#00D8FF"/>
<path d="M13.545 37.3314C12.9327 37.3455 12.3277 37.1969 11.7915 36.9009C9.91201 35.8168 9.26101 32.6904 10.0498 28.5364C10.9195 24.5609 12.4265 20.7523 14.5123 17.2581V17.2581C16.4689 13.7525 18.9737 10.5826 21.9319 7.86843C23.2354 6.68023 24.7391 5.7324 26.3734 5.06887C26.9645 4.79185 27.6093 4.64825 28.2621 4.64825C28.9149 4.64825 29.5597 4.79185 30.1508 5.06887C32.1051 6.195 32.7521 9.64425 31.8399 14.0713C30.9434 17.831 29.4756 21.4311 27.4877 24.7459C25.6 28.21 23.174 31.3524 20.3004 34.0554C18.9496 35.2902 17.3819 36.2643 15.6765 36.9285C14.9938 37.1819 14.2731 37.3181 13.545 37.3314V37.3314ZM15.8721 18.0377C13.8824 21.3837 12.4381 25.025 11.5933 28.8251C10.8675 32.6511 11.5644 34.9519 12.5777 35.5372C13.6277 36.1449 16.1766 35.5687 19.2714 32.865C22.0146 30.2754 24.3301 27.2675 26.1319 23.9531C28.0362 20.7841 29.4442 17.3422 30.3069 13.7471C31.1653 9.57993 30.4238 7.02843 29.3711 6.42206C28.9766 6.27089 28.555 6.20322 28.133 6.22333C27.711 6.24344 27.2977 6.35088 26.9194 6.53887C25.4647 7.13914 24.1273 7.99132 22.9688 9.05625C20.1425 11.656 17.7498 14.6907 15.8813 18.0456L15.8721 18.0377Z" fill="#00D8FF"/>
<path d="M28.4511 37.3485C26.6726 37.3485 24.4138 36.2723 22.0618 34.2497C19.0519 31.5109 16.5047 28.3033 14.5189 24.7511V24.7511C12.4592 21.305 10.9642 17.5515 10.0905 13.6329C9.71159 11.909 9.64138 10.1314 9.88312 8.38294C9.93901 7.73431 10.1365 7.10584 10.4617 6.54185C10.7869 5.97785 11.2319 5.49207 11.7652 5.11875C13.7169 3.98869 17.0284 5.15025 20.4081 8.15063C23.2176 10.8047 25.6034 13.8741 27.4824 17.2515C29.5408 20.6172 31.0515 24.2885 31.9581 28.1282C32.3533 29.9154 32.4142 31.7604 32.1379 33.5698C32.0721 34.2371 31.8628 34.8823 31.5244 35.4611C31.1859 36.0399 30.7263 36.5387 30.177 36.9233C29.6496 37.2156 29.0539 37.3623 28.4511 37.3485V37.3485ZM15.8773 23.961C17.7823 27.3557 20.2155 30.4255 23.0856 33.0553C26.0374 35.595 28.3789 36.141 29.3856 35.5491C30.4356 34.9388 31.2099 32.4476 30.4119 28.4169C29.5376 24.751 28.0887 21.2466 26.1187 18.0338C24.3257 14.8012 22.0483 11.8622 19.3659 9.31875C16.1844 6.49425 13.6041 5.86294 12.5527 6.47194C12.2251 6.73822 11.9562 7.06955 11.763 7.44501C11.5699 7.82047 11.4567 8.2319 11.4306 8.65332C11.2219 10.2127 11.2899 11.7966 11.6314 13.3324C12.4718 17.0797 13.9056 20.6687 15.8786 23.9636L15.8773 23.961Z" fill="#00D8FF"/>
</svg>
