<svg width="152" height="152" viewBox="0 0 152 152" fill="none" xmlns="http://www.w3.org/2000/svg">
<path d="M75.8115 151.623C117.681 151.623 151.623 117.681 151.623 75.8115C151.623 33.942 117.681 0 75.8115 0C33.942 0 0 33.942 0 75.8115C0 117.681 33.942 151.623 75.8115 151.623Z" fill="black"/>
<path d="M116.573 97.3437L102.871 111.992C102.573 112.31 102.213 112.564 101.812 112.737C101.412 112.911 100.98 113 100.543 113H35.5907C35.2807 113 34.9776 112.91 34.7184 112.74C34.4592 112.571 34.2554 112.33 34.1318 112.046C34.0083 111.763 33.9705 111.45 34.023 111.145C34.0756 110.841 34.2162 110.558 34.4277 110.332L48.1397 95.684C48.4367 95.3666 48.7959 95.1134 49.1951 94.9401C49.5943 94.7667 50.0249 94.6769 50.4604 94.6762H115.409C115.719 94.6762 116.022 94.7665 116.282 94.9358C116.541 95.1053 116.744 95.3465 116.869 95.6298C116.992 95.9132 117.03 96.2263 116.977 96.5308C116.924 96.8353 116.784 97.1178 116.573 97.3437ZM102.871 67.8459C102.573 67.5277 102.213 67.274 101.812 67.1006C101.412 66.9273 100.98 66.8379 100.543 66.8381H35.5907C35.2807 66.8381 34.9776 66.9284 34.7184 67.0978C34.4592 67.2672 34.2554 67.5084 34.1318 67.7917C34.0083 68.0751 33.9705 68.3883 34.023 68.6928C34.0756 68.9972 34.2162 69.2797 34.4277 69.5057L48.1397 84.1541C48.4367 84.4715 48.7959 84.7246 49.1951 84.898C49.5943 85.0713 50.0249 85.1612 50.4604 85.1619H115.409C115.719 85.1619 116.022 85.0716 116.282 84.9022C116.541 84.7328 116.744 84.4916 116.869 84.2083C116.992 83.9249 117.03 83.6117 116.977 83.3072C116.924 83.0028 116.784 82.7203 116.573 82.4943L102.871 67.8459ZM35.5907 57.3238H100.543C100.98 57.324 101.412 57.2347 101.812 57.0613C102.213 56.8879 102.573 56.6342 102.871 56.316L116.573 41.6675C116.784 41.4416 116.924 41.1591 116.977 40.8546C117.03 40.5501 116.992 40.237 116.869 39.9537C116.744 39.6703 116.541 39.4291 116.282 39.2597C116.022 39.0903 115.719 39 115.409 39H50.4604C50.0249 39.0007 49.5943 39.0906 49.1951 39.2639C48.7959 39.4373 48.4367 39.6905 48.1397 40.0078L34.4312 54.6563C34.22 54.8819 34.0794 55.1642 34.0267 55.4683C33.974 55.7724 34.0116 56.0853 34.1347 56.3686C34.2578 56.6518 34.4611 56.8929 34.7197 57.0626C34.9784 57.2323 35.281 57.3231 35.5907 57.3238Z" fill="url(#paint0_linear_601_16)"/>
<defs>
<linearGradient id="paint0_linear_601_16" x1="41.0062" y1="114.764" x2="108.881" y2="38.0089" gradientUnits="userSpaceOnUse">
<stop offset="0.08" stop-color="#9945FF"/>
<stop offset="0.3" stop-color="#8752F3"/>
<stop offset="0.5" stop-color="#5497D5"/>
<stop offset="0.6" stop-color="#43B4CA"/>
<stop offset="0.72" stop-color="#28E0B9"/>
<stop offset="0.97" stop-color="#19FB9B"/>
</linearGradient>
</defs>
</svg>
