<svg width="1775" height="834" viewBox="0 0 1775 834" fill="none" xmlns="http://www.w3.org/2000/svg">
<g clip-path="url(#clip0_3102_7)">
<rect width="780" height="1688" rx="104" transform="matrix(0.866025 -0.5 0.866025 0.5 -374 -10)" fill="#007AFF"/>
<g clip-path="url(#clip1_3102_7)">
<path d="M197.577 320C158.385 297.373 138.789 286.059 138.789 272C138.789 257.941 158.385 246.627 197.577 224L706.8 -70C745.992 -92.6274 765.587 -103.941 789.938 -103.941C814.289 -103.941 833.885 -92.6274 873.077 -70L1763.35 444L1087.85 834L197.577 320Z" fill="#1F8AFF"/>
<g clip-path="url(#clip2_3102_7)">
<rect width="144" height="48" rx="12" transform="matrix(0.866025 -0.5 0.866025 0.5 187.184 274)" fill="#48A0FF"/>
<rect width="164" height="32" rx="12" transform="matrix(0.866025 -0.5 0.866025 0.5 408.887 134)" fill="#48A0FF"/>
<rect width="104" height="24" rx="12" transform="matrix(0.866025 -0.5 0.866025 0.5 476.437 143)" fill="#48A0FF"/>
</g>
<path d="M790.045 375.565C821.542 329.313 842.717 298.581 853.576 283.372C884.639 239.908 891.834 231.32 898.912 227.085C900.471 226.154 904.391 224.343 908.557 224.09C912.041 223.891 914.703 224.806 916.461 225.51C918.19 226.232 921.913 228.002 924.294 229.687C951.687 248.817 1012.66 298.419 1040.22 321.65C1051.9 331.468 1051.41 337.301 1046.77 340.524C1036.67 347.538 1019.87 347.576 1002.04 349.718C974.164 353.063 957.782 354.585 930.649 357.809C899.296 361.531 904.711 350.5 904.293 337.827C904.176 334.514 908.617 280.515 905.504 277.647C905.118 277.286 903.354 276.129 901.225 276.212C899.122 276.276 897.817 277.423 896.89 278.269C895.569 279.474 886.471 305.266 869.506 355.694C867.126 363.125 862.774 368.59 856.42 372.104C849.455 375.956 832.58 381.406 819.625 385.218C803.766 389.875 792.165 394.193 786.384 389.889C783.358 387.658 784.588 382.877 790.045 375.565Z" fill="white"/>
</g>
<path d="M199.309 319C179.664 307.658 165.108 299.25 155.433 291.929C145.802 284.641 141.238 278.596 141.238 272C141.238 265.404 145.802 259.359 155.433 252.071C165.108 244.75 179.664 236.342 199.309 225L708.532 -69C728.177 -80.342 742.74 -88.7457 755.42 -94.3315C768.044 -99.8924 778.514 -102.527 789.938 -102.527L789.938 -103.941L789.938 -102.527C801.363 -102.527 811.832 -99.8924 824.456 -94.3315C837.137 -88.7457 851.7 -80.342 871.345 -69L1759.89 444L1087.85 832L199.309 319Z" stroke="#48A0FF" stroke-width="4"/>
</g>
<rect x="3.4641" width="776" height="1684" rx="102" transform="matrix(0.866025 -0.5 0.866025 0.5 -373.536 -8.26795)" stroke="#56A7FF" stroke-width="4"/>
<g clip-path="url(#clip3_3102_7)">
<mask id="path-9-inside-1_3102_7" fill="white">
<path d="M960 688L1635.5 298C1680.72 324.108 1703.33 337.162 1713.03 351.923C1724.06 368.724 1724.06 387.276 1713.03 404.077C1703.33 418.838 1680.72 431.892 1635.5 458L1237.13 688C1191.91 714.108 1169.3 727.162 1143.73 732.76C1114.63 739.132 1082.5 739.132 1053.4 732.76C1027.83 727.162 1005.22 714.108 960 688Z"/>
</mask>
<path d="M960 688L1635.5 298C1680.72 324.108 1703.33 337.162 1713.03 351.923C1724.06 368.724 1724.06 387.276 1713.03 404.077C1703.33 418.838 1680.72 431.892 1635.5 458L1237.13 688C1191.91 714.108 1169.3 727.162 1143.73 732.76C1114.63 739.132 1082.5 739.132 1053.4 732.76C1027.83 727.162 1005.22 714.108 960 688Z" fill="#48A0FF"/>
<rect width="280" height="10" rx="5" transform="matrix(0.866025 -0.5 0.866025 0.5 1292.55 630)" fill="white"/>
<path d="M1295.15 552.5L1294.68 564.698C1294.46 570.424 1286.36 575 1276.44 575V575C1266.25 575 1258.04 570.186 1258.19 564.306L1258.6 548.449C1258.7 544.557 1264.07 541.395 1270.81 541.26V541.26C1277.96 541.118 1283.89 544.427 1283.89 548.558L1283.89 564.493C1283.89 566.938 1280.33 568.879 1276.1 568.735V568.735C1272.21 568.603 1269.17 566.743 1269.17 564.493L1269.17 552.5" stroke="#8AC2FF" stroke-width="4" strokeLinecap="round" strokeLinejoin="round"/>
<g clip-path="url(#clip4_3102_7)">
<rect width="344" height="66" rx="33" transform="matrix(0.866025 -0.5 0.866025 0.5 1282.16 522)" fill="#48A0FF"/>
<path d="M1346.07 530.416C1344.85 531.122 1343.38 531.105 1342.1 530.367L1325.63 520.854C1323.87 519.841 1323.86 518.638 1325.63 517.617C1327.14 516.745 1328.6 516.629 1330.85 517.193L1348.75 521.584L1348.86 521.518L1341.24 511.192C1340.28 509.905 1340.48 509.042 1342 508.162C1343.76 507.149 1345.83 507.149 1347.6 508.17L1364.07 517.683C1365.35 518.422 1365.38 519.268 1364.16 519.974C1362.94 520.68 1361.48 520.655 1360.21 519.916L1347.96 512.844L1347.84 512.91L1355.26 523.12C1355.81 523.867 1355.63 524.432 1354.73 524.955C1353.81 525.486 1352.79 525.594 1351.54 525.287L1333.84 520.995L1333.72 521.061L1345.97 528.134C1347.25 528.872 1347.29 529.711 1346.07 530.416ZM1376.98 512.636C1372.17 515.416 1366.36 515.333 1361.37 512.453C1356.41 509.589 1356.15 506.103 1360.71 503.472C1365.08 500.948 1371 500.981 1375.19 503.397C1376.35 504.069 1376.35 504.833 1375.19 505.505L1366.39 510.585L1366.58 510.693C1368.86 512.013 1371.74 512.08 1373.86 510.851C1375.4 509.963 1375.89 509.083 1375.69 507.655C1375.68 507.132 1375.89 506.825 1376.44 506.51C1377.34 505.987 1378.65 505.895 1379.62 506.452C1379.95 506.643 1380.19 506.9 1380.35 507.207C1381.23 508.892 1379.96 510.917 1376.98 512.636ZM1363.86 509.075L1370.4 505.298C1368.3 504.186 1365.7 504.177 1363.86 505.24C1362.02 506.302 1362.03 507.854 1363.86 509.075ZM1393.19 503.28C1389.65 505.322 1386.03 505.953 1383.48 505.331C1383.11 505.231 1382.78 505.106 1382.55 504.974C1381.59 504.417 1381.66 503.629 1382.64 503.064C1383.31 502.674 1384.19 502.517 1385.41 502.558C1387.31 502.707 1388.75 502.442 1390.34 501.52C1391.87 500.641 1392.23 499.703 1391.2 499.113C1390.37 498.632 1389.39 498.682 1387.55 499.362L1384.42 500.541C1380.75 501.911 1377.69 501.902 1375.4 500.582C1372.46 498.881 1373.1 496.316 1377.1 494.008C1380.29 492.166 1384.09 491.651 1386.33 492.365C1386.6 492.456 1386.85 492.547 1387.05 492.664C1387.9 493.153 1387.96 493.801 1386.88 494.423C1386.33 494.739 1385.53 494.971 1384.71 494.93C1383.04 494.813 1381.49 494.88 1379.98 495.751C1378.55 496.573 1378.24 497.536 1379.23 498.109C1380.03 498.574 1381.17 498.532 1383.04 497.835L1386.13 496.681C1390.1 495.187 1392.66 495.104 1394.96 496.432C1398.02 498.2 1397.26 500.931 1393.19 503.28ZM1409.02 494.141C1405.48 496.183 1401.86 496.813 1399.31 496.191C1398.94 496.091 1398.61 495.967 1398.38 495.834C1397.42 495.278 1397.49 494.489 1398.47 493.925C1399.14 493.535 1400.02 493.377 1401.24 493.418C1403.14 493.568 1404.58 493.302 1406.17 492.381C1407.7 491.501 1408.06 490.563 1407.03 489.974C1406.2 489.492 1405.22 489.542 1403.38 490.223L1400.25 491.401C1396.58 492.771 1393.52 492.763 1391.23 491.443C1388.29 489.741 1388.93 487.176 1392.93 484.869C1396.12 483.026 1399.92 482.511 1402.16 483.225C1402.43 483.316 1402.68 483.408 1402.88 483.524C1403.73 484.014 1403.79 484.661 1402.71 485.284C1402.16 485.599 1401.36 485.832 1400.54 485.79C1398.87 485.674 1397.32 485.74 1395.81 486.612C1394.38 487.434 1394.07 488.396 1395.06 488.969C1395.86 489.434 1397 489.393 1398.87 488.695L1401.96 487.542C1405.93 486.047 1408.49 485.964 1410.79 487.292C1413.85 489.061 1413.09 491.792 1409.02 494.141ZM1423.04 485.947C1420.1 487.641 1415.98 487.832 1413.2 486.23C1410.4 484.611 1410.93 482.428 1414.56 480.07L1418.21 477.696L1417.19 477.107C1415.75 476.277 1413.91 476.376 1412.33 477.29C1411.05 478.028 1410.69 478.717 1410.96 479.954C1411.02 480.519 1410.75 480.975 1410.07 481.365C1409.05 481.955 1407.65 481.996 1406.71 481.448C1406.37 481.257 1406.14 481.042 1405.97 480.776C1404.85 479.298 1406.19 477.215 1409.38 475.372C1413.33 473.089 1417.95 472.782 1421.05 474.575L1429.84 479.647C1431.23 480.452 1431.1 481.357 1429.91 482.046C1428.77 482.702 1427.35 482.793 1426.03 482.129L1425.24 481.672L1425.15 481.722C1425.93 483.167 1424.96 484.835 1423.04 485.947ZM1421.38 483.399C1423.22 482.336 1423.54 480.776 1421.87 479.813L1420.75 479.166L1417.7 481.158C1416.25 482.129 1416.06 483.05 1417.16 483.681C1418.31 484.345 1419.98 484.212 1421.38 483.399ZM1447.7 478.119C1444.53 479.929 1441 480.593 1438.38 480.228C1437.76 480.136 1437.29 479.962 1436.9 479.738C1436.02 479.231 1436.02 478.468 1437.07 477.862C1437.62 477.546 1438.22 477.397 1439.13 477.372C1441.34 477.339 1443.02 477.048 1444.43 476.252C1446.75 474.932 1446.83 473.421 1444.91 472.309L1442.45 470.889L1442.36 470.939C1443.3 472.309 1442.61 473.985 1440.38 475.272C1436.54 477.488 1431.19 477.19 1426.49 474.475C1421.66 471.686 1421.16 468.673 1425.12 466.382C1427.34 465.104 1430.18 464.805 1432.73 465.344L1432.82 465.294L1431.97 464.805C1430.54 463.983 1430.74 463.053 1431.95 462.356C1433.16 461.659 1434.74 461.559 1436.17 462.381L1449.16 469.885C1453.17 472.201 1452.68 475.272 1447.7 478.119ZM1438.68 472.649C1440.78 471.437 1440.46 469.694 1437.67 468.084C1434.9 466.481 1431.77 466.232 1429.67 467.444C1427.6 468.64 1428.04 470.408 1430.83 472.018C1433.65 473.645 1436.6 473.853 1438.68 472.649ZM1460.56 464.381C1455.75 467.162 1449.94 467.079 1444.95 464.198C1439.99 461.335 1439.73 457.848 1444.29 455.217C1448.66 452.693 1454.58 452.727 1458.77 455.142C1459.93 455.815 1459.93 456.578 1458.77 457.251L1449.97 462.331L1450.16 462.439C1452.44 463.758 1455.32 463.825 1457.44 462.596C1458.98 461.708 1459.47 460.828 1459.27 459.4C1459.26 458.878 1459.47 458.57 1460.02 458.255C1460.92 457.732 1462.23 457.641 1463.2 458.197C1463.53 458.388 1463.77 458.645 1463.93 458.952C1464.81 460.637 1463.54 462.663 1460.56 464.381ZM1447.44 460.82L1453.98 457.043C1451.88 455.931 1449.28 455.922 1447.44 456.985C1445.6 458.047 1445.61 459.6 1447.44 460.82Z" fill="#8AC2FF"/>
<g clip-path="url(#clip5_3102_7)">
<path fill-rule="evenodd" clip-rule="evenodd" d="M1562.9 392.415C1559.1 390.22 1556.89 387.052 1556.85 384.136C1556.84 382.677 1557.35 381.322 1558.44 380.182L1559.58 380.835C1568.98 386.267 1584.24 386.267 1593.64 380.835L1595.03 380.036C1596.61 381.336 1597.3 382.939 1597.18 384.632C1597.01 387.087 1595.12 389.644 1591.92 391.488L1590.32 392.415C1582.75 396.786 1570.47 396.786 1562.9 392.415ZM1592.11 378.383C1588.53 376.941 1584.25 376.181 1576.61 376.181C1570.62 376.181 1566.62 376.66 1563.34 377.55C1562.5 377.777 1561.75 378.05 1561.08 378.363L1562.47 379.165C1570.28 383.674 1582.94 383.674 1590.75 379.165L1592.11 378.383ZM1561.6 375.412C1555.34 377.111 1552.72 380.594 1552.76 384.152C1552.8 387.684 1555.44 391.447 1560.01 394.085C1569.18 399.379 1584.04 399.379 1593.21 394.085L1594.82 393.158C1598.74 390.894 1601.05 387.775 1601.27 384.727C1601.48 381.663 1599.56 378.585 1594.83 376.603C1590.27 374.693 1585.03 373.819 1576.61 373.819C1570.23 373.819 1565.59 374.329 1561.6 375.412Z" fill="#8AC2FF"/>
</g>
</g>
<rect width="344" height="66" rx="33" transform="matrix(0.866025 -0.5 0.866025 0.5 1282.16 522)" stroke="#8AC2FF" stroke-width="3.34"/>
<rect width="18" height="30" rx="9" transform="matrix(0.866025 -0.5 0.866025 0.5 1616.45 339)" stroke="#8AC2FF" stroke-width="4"/>
<path d="M1627.71 353.5C1637.27 359.022 1649.41 357.533 1656.77 353.283M1657.15 336.5C1666.71 342.022 1664.14 349.033 1656.77 353.283M1656.77 353.283L1664.08 357.5" stroke="#8AC2FF" stroke-width="4" strokeLinecap="round" strokeLinejoin="round"/>
</g>
<path d="M960 688L1635.5 298L960 688ZM1687.46 324C1739.12 353.823 1739.12 402.177 1687.46 432L1192.09 718C1140.44 747.823 1056.69 747.823 1005.03 718L1011.96 714C1059.79 741.614 1137.34 741.614 1185.17 714L1680.53 428C1728.36 400.386 1728.36 355.614 1680.53 328L1687.46 324ZM1192.09 718C1140.44 747.823 1056.69 747.823 1005.03 718L956.536 690L963.464 686L1011.96 714C1059.79 741.614 1137.34 741.614 1185.17 714L1192.09 718ZM1638.96 296L1687.46 324C1739.12 353.823 1739.12 402.177 1687.46 432L1680.53 428C1728.36 400.386 1728.36 355.614 1680.53 328L1632.04 300L1638.96 296Z" fill="#8AC2FF" mask="url(#path-9-inside-1_3102_7)"/>
<g clip-path="url(#clip6_3102_7)">
<rect width="378" height="99" rx="49.5" transform="matrix(0.866025 -0.5 0.866025 0.5 995.792 643.75)" fill="white"/>
<g clip-path="url(#clip7_3102_7)">
<path fill-rule="evenodd" clip-rule="evenodd" d="M1054.56 637.372C1055.65 639.31 1058.56 640.99 1064.38 644.35L1077.89 652.15C1083.71 655.51 1086.62 657.19 1089.98 657.82C1092.93 658.374 1096.11 658.374 1099.06 657.82C1102.42 657.19 1105.33 655.51 1111.15 652.15L1124.66 644.35C1130.48 640.99 1133.39 639.31 1134.48 637.372C1135.44 635.668 1135.44 633.832 1134.48 632.128C1133.39 630.19 1130.48 628.51 1124.66 625.15L1111.15 617.35C1105.33 613.99 1102.42 612.31 1099.06 611.68C1096.11 611.126 1092.93 611.126 1089.98 611.68C1086.62 612.31 1083.71 613.99 1077.89 617.35L1064.38 625.15C1058.56 628.51 1055.65 630.19 1054.56 632.128C1053.6 633.832 1053.6 635.668 1054.56 637.372ZM1067.64 639.906C1067.91 640.39 1068.64 640.81 1070.1 641.65L1086.21 650.95C1089.12 652.63 1090.57 653.47 1092.25 653.785C1093.72 654.062 1095.31 654.062 1096.79 653.785C1098.47 653.47 1099.92 652.63 1102.83 650.95L1122.58 639.55C1125.49 637.87 1126.94 637.03 1127.49 636.061C1127.97 635.209 1127.97 634.291 1127.49 633.439C1126.94 632.47 1125.49 631.63 1122.58 629.95L1106.47 620.65C1105.01 619.81 1104.29 619.39 1103.45 619.233C1102.71 619.094 1101.92 619.094 1101.18 619.233C1100.34 619.39 1099.61 619.81 1098.16 620.65L1070.1 636.85C1068.64 637.69 1067.91 638.11 1067.64 638.594C1067.4 639.021 1067.4 639.479 1067.64 639.906Z" fill="#007AFF"/>
</g>
<path d="M1164.63 611.836C1155.94 616.852 1144.69 616.641 1135.38 611.262C1126.04 605.872 1125.65 599.368 1134.34 594.352C1143.01 589.348 1154.29 589.559 1163.63 594.95C1172.95 600.329 1173.29 606.832 1164.63 611.836ZM1159.51 608.883C1164.3 606.118 1163.49 602.11 1157.36 598.571C1151.21 595.02 1144.25 594.539 1139.46 597.305C1134.67 600.071 1135.48 604.102 1141.63 607.653C1147.76 611.192 1154.7 611.661 1159.51 608.883ZM1193.51 603.548C1191.79 604.544 1189.5 604.65 1187.47 603.478L1163.64 589.72C1161.65 588.572 1161.81 587.259 1163.51 586.275C1165.22 585.29 1167.49 585.197 1169.5 586.357L1170.68 587.037L1170.8 586.966C1169.42 584.81 1170.25 582.501 1173.4 580.685C1178.92 577.498 1186.51 577.966 1193.53 582.021C1200.54 586.064 1201.39 590.447 1195.95 593.587C1192.78 595.415 1188.8 595.931 1185.19 595.181L1185.07 595.251L1193.39 600.056C1195.42 601.228 1195.26 602.54 1193.51 603.548ZM1189.09 592.04C1192.05 590.33 1191.42 587.81 1187.47 585.525C1183.53 583.251 1179.12 582.865 1176.16 584.576C1173.26 586.251 1173.93 588.841 1177.82 591.091C1181.76 593.365 1186.19 593.716 1189.09 592.04ZM1219.03 580.401C1212.23 584.327 1204.03 584.209 1196.99 580.143C1189.99 576.1 1189.62 571.178 1196.06 567.463C1202.23 563.901 1210.59 563.948 1216.5 567.358C1218.14 568.307 1218.14 569.385 1216.5 570.334L1204.07 577.506L1204.34 577.659C1207.56 579.522 1211.62 579.616 1214.63 577.881C1216.8 576.627 1217.49 575.385 1217.21 573.37C1217.19 572.631 1217.49 572.198 1218.26 571.752C1219.54 571.014 1221.39 570.885 1222.75 571.67C1223.21 571.94 1223.56 572.303 1223.78 572.737C1225.02 575.116 1223.23 577.975 1219.03 580.401ZM1200.5 575.374L1209.74 570.041C1206.77 568.471 1203.1 568.459 1200.5 569.959C1197.9 571.459 1197.92 573.651 1200.5 575.374ZM1236.13 570.484C1234.4 571.48 1232.11 571.585 1230.08 570.414L1213.52 560.851C1211.67 559.785 1211.61 558.507 1213.4 557.476C1215.18 556.445 1217.5 556.421 1219.36 557.5L1220.58 558.203L1220.7 558.132C1219.16 555.906 1219.87 553.785 1223.22 551.851C1228.05 549.062 1233.81 549.25 1238.91 552.191L1250.28 558.753C1252.31 559.925 1252.12 561.25 1250.4 562.246C1248.65 563.253 1246.38 563.347 1244.35 562.175L1234.22 556.328C1231.38 554.687 1228.42 554.523 1225.76 556.058C1223.1 557.593 1223.36 559.691 1226.18 561.32L1236.01 566.992C1238.04 568.164 1237.87 569.476 1236.13 570.484ZM1269.93 550.919C1268.03 552.021 1265.71 552.068 1263.95 551.048C1263.44 550.755 1262.89 550.275 1262.4 549.689L1248.62 532.498C1247.1 530.634 1247.44 529.169 1249.76 527.834C1252.15 526.451 1254.63 526.24 1257.9 527.119L1287.73 535.064C1288.81 535.357 1289.46 535.615 1290.07 535.966C1291.75 536.939 1291.67 538.369 1289.89 539.4C1288.16 540.396 1286.46 540.466 1284 539.681L1277.83 537.9L1267.25 544.005L1270.28 547.533C1271.66 548.986 1271.56 549.982 1269.93 550.919ZM1263.84 540.49L1271.66 535.978L1255.79 531.291L1255.64 531.373L1263.84 540.49ZM1307.59 537.686C1305.87 538.682 1303.57 538.788 1301.54 537.616L1277.71 523.858C1275.72 522.71 1275.89 521.397 1277.59 520.413C1279.3 519.428 1281.57 519.335 1283.58 520.495L1284.76 521.174L1284.88 521.104C1283.5 518.948 1284.33 516.639 1287.48 514.823C1293 511.635 1300.59 512.104 1307.61 516.159C1314.61 520.202 1315.47 524.585 1310.03 527.725C1306.86 529.553 1302.88 530.069 1299.27 529.319L1299.15 529.389L1307.47 534.194C1309.5 535.366 1309.34 536.678 1307.59 537.686ZM1303.17 526.178C1306.13 524.467 1305.5 521.948 1301.54 519.663C1297.6 517.389 1293.2 517.002 1290.24 518.713C1287.33 520.389 1288 522.979 1291.9 525.229C1295.84 527.502 1300.26 527.854 1303.17 526.178ZM1333.35 522.812C1331.63 523.808 1329.33 523.914 1327.3 522.742L1303.48 508.984C1301.49 507.836 1301.65 506.523 1303.35 505.539C1305.06 504.554 1307.33 504.461 1309.34 505.621L1310.52 506.3L1310.64 506.23C1309.26 504.074 1310.09 501.765 1313.24 499.949C1318.76 496.761 1326.35 497.23 1333.37 501.285C1340.38 505.328 1341.23 509.711 1335.79 512.851C1332.62 514.679 1328.64 515.195 1325.03 514.445L1324.91 514.515L1333.23 519.32C1335.26 520.492 1335.1 521.804 1333.35 522.812ZM1328.93 511.304C1331.89 509.593 1331.26 507.074 1327.3 504.789C1323.37 502.515 1318.96 502.128 1316 503.839C1313.1 505.515 1313.77 508.105 1317.66 510.355C1321.6 512.628 1326.03 512.98 1328.93 511.304Z" fill="#007AFF"/>
</g>
<defs>
<clipPath id="clip0_3102_7">
<rect width="780" height="1688" rx="104" transform="matrix(0.866025 -0.5 0.866025 0.5 -374 -10)" fill="white"/>
</clipPath>
<clipPath id="clip1_3102_7">
<path d="M197.577 320C158.385 297.373 138.789 286.059 138.789 272C138.789 257.941 158.385 246.627 197.577 224L706.8 -70C745.992 -92.6274 765.587 -103.941 789.938 -103.941C814.289 -103.941 833.885 -92.6274 873.077 -70L1763.35 444L1087.85 834L197.577 320Z" fill="white"/>
</clipPath>
<clipPath id="clip2_3102_7">
<rect width="780" height="112" fill="white" transform="matrix(0.866025 -0.5 0.866025 0.5 114.438 272)"/>
</clipPath>
<clipPath id="clip3_3102_7">
<path d="M960 688L1635.5 298C1680.72 324.108 1703.33 337.162 1713.03 351.923C1724.06 368.724 1724.06 387.276 1713.03 404.077C1703.33 418.838 1680.72 431.892 1635.5 458L1237.13 688C1191.91 714.108 1169.3 727.162 1143.73 732.76C1114.63 739.132 1082.5 739.132 1053.4 732.76C1027.83 727.162 1005.22 714.108 960 688Z" fill="white"/>
</clipPath>
<clipPath id="clip4_3102_7">
<rect width="344" height="66" rx="33" transform="matrix(0.866025 -0.5 0.866025 0.5 1282.16 522)" fill="white"/>
</clipPath>
<clipPath id="clip5_3102_7">
<rect width="42" height="42" fill="white" transform="matrix(0.866025 -0.5 0.866025 0.5 1540.24 385)"/>
</clipPath>
<clipPath id="clip6_3102_7">
<rect width="378" height="99" rx="49.5" transform="matrix(0.866025 -0.5 0.866025 0.5 995.792 643.75)" fill="white"/>
</clipPath>
<clipPath id="clip7_3102_7">
<rect width="69" height="69" fill="white" transform="matrix(0.866025 -0.5 0.866025 0.5 1034.76 636.25)"/>
</clipPath>
</defs>
</svg>
