<svg width="16" height="16" viewBox="0 0 16 16" fill="none" xmlns="http://www.w3.org/2000/svg">
<g clip-path="url(#clip0_8_2)">
<path d="M8 16C12.4183 16 16 12.4183 16 8C16 3.58172 12.4183 0 8 0C3.58172 0 0 3.58172 0 8C0 12.4183 3.58172 16 8 16ZM6.66952 9.62716L10.379 6.27967C10.5418 6.13517 10.3434 6.06471 10.1273 6.19577L5.54909 9.08411L3.57156 8.46689C3.1445 8.33613 3.14143 8.04267 3.66744 7.83169L11.3734 4.86029C11.7254 4.7005 12.0651 4.94482 11.9307 5.4835L10.6184 11.6677C10.5268 12.1072 10.2612 12.2123 9.89333 12.0093L7.89424 10.5323L6.93333 11.4667C6.8217 11.5752 6.73333 11.6667 6.53333 11.6667L6.66947 9.62713L6.66952 9.62716Z" fill="white"/>
</g>
<defs>
<clipPath id="clip0_8_2">
<rect width="16" height="16" fill="white"/>
</clipPath>
</defs>
</svg>
