<svg width="16" height="16" viewBox="0 0 16 16" fill="none" xmlns="http://www.w3.org/2000/svg">
<path d="M8 3.24286C5.40357 3.24286 3.29286 5.35357 3.28929 7.95C3.28929 8.83929 3.53929 9.70714 4.01071 10.4536L4.12143 10.6321L3.64643 12.3679L5.42857 11.9L5.6 12.0036C6.32143 12.4321 7.15 12.6607 7.99643 12.6607H8C10.5929 12.6607 12.7607 10.55 12.7607 7.95357C12.7607 6.69643 12.2179 5.51429 11.3286 4.625C10.4357 3.73214 9.25714 3.24286 8 3.24286ZM10.7679 9.97143C10.65 10.3036 10.0857 10.6036 9.81429 10.6429C9.36429 10.7107 9.01429 10.675 8.11786 10.2893C6.7 9.675 5.77143 8.24643 5.7 8.15357C5.62857 8.06071 5.12143 7.38571 5.12143 6.68929C5.12143 5.99286 5.48571 5.65 5.61786 5.50714C5.74643 5.36429 5.9 5.32857 5.99643 5.32857C6.08929 5.32857 6.18571 5.32857 6.26786 5.33214C6.35357 5.33571 6.47143 5.3 6.58571 5.575C6.70357 5.85714 6.98571 6.55357 7.02143 6.625C7.05714 6.69643 7.08214 6.77857 7.03214 6.87143C6.76071 7.41429 6.47143 7.39286 6.61786 7.64286C7.16429 8.58214 7.71071 8.90714 8.54286 9.325C8.68571 9.39643 8.76786 9.38572 8.85 9.28929C8.93214 9.19643 9.20357 8.875 9.29643 8.73571C9.38929 8.59286 9.48571 8.61786 9.61429 8.66429C9.74286 8.71072 10.4393 9.05357 10.5821 9.125C10.725 9.19643 10.8179 9.23214 10.8536 9.28929C10.8857 9.35714 10.8857 9.64286 10.7679 9.97143ZM14.2857 0H1.71429C0.767857 0 0 0.767857 0 1.71429V14.2857C0 15.2321 0.767857 16 1.71429 16H14.2857C15.2321 16 16 15.2321 16 14.2857V1.71429C16 0.767857 15.2321 0 14.2857 0ZM7.99643 13.6143C7.04643 13.6143 6.11429 13.375 5.28929 12.925L2.28571 13.7143L3.08929 10.7786C2.59286 9.92143 2.33214 8.94643 2.33214 7.94643C2.33571 4.825 4.875 2.28571 7.99643 2.28571C9.51071 2.28571 10.9321 2.875 12.0036 3.94643C13.0714 5.01786 13.7143 6.43929 13.7143 7.95357C13.7143 11.075 11.1179 13.6143 7.99643 13.6143Z" fill="white"/>
</svg>
